<svg width="133" height="156" viewBox="0 0 133 156" fill="none" xmlns="http://www.w3.org/2000/svg">
<path fill-rule="evenodd" clip-rule="evenodd" d="M48.7013 57.6189C31.8201 55.8484 16.6666 68.2415 14.8866 85.2126C13.7882 95.6857 18.6794 106.443 24.3856 114.498C27.2635 118.56 30.4207 122.04 33.2935 124.568C34.7287 125.831 36.1239 126.884 37.4059 127.656C38.6398 128.399 39.9578 128.997 41.2014 129.128C42.4451 129.258 43.8587 128.946 45.2198 128.475C46.6341 127.986 48.2174 127.246 49.8833 126.308C53.2182 124.431 57.0287 121.682 60.6868 118.305C67.9401 111.609 74.9567 102.101 76.0551 91.628C77.835 74.6569 65.5825 59.3894 48.7013 57.6189ZM24.3525 86.2054C25.5879 74.4262 36.0845 65.8656 47.7086 67.0847C59.3326 68.3039 67.8247 78.856 66.5894 90.6352C65.8073 98.0917 60.5704 105.26 54.7164 110.761C51.8265 113.477 48.8731 115.704 46.4231 117.268C45.1973 118.05 44.12 118.653 43.2587 119.064C42.8386 119.265 42.4879 119.412 42.2095 119.511C41.9579 119.357 41.6456 119.141 41.2765 118.857C40.5195 118.276 39.5906 117.464 38.5539 116.444C36.4817 114.406 34.0546 111.616 31.7911 108.359C27.2059 101.764 23.5703 93.6637 24.3525 86.2054Z" fill="white"/>
<path fill-rule="evenodd" clip-rule="evenodd" d="M8.58351 84.5515C10.7237 64.1457 28.9538 49.1758 49.3618 51.3162C69.7698 53.4566 84.4974 71.883 82.3572 92.2889C81.0243 104.997 72.7093 115.831 64.9849 122.961C60.9985 126.641 56.7931 129.69 52.9913 131.83C51.0962 132.897 49.1595 133.818 47.2901 134.465L45.2194 128.475L47.2901 134.465C45.6263 135.04 43.163 135.706 40.5399 135.43C37.9169 135.155 35.6454 133.993 34.1371 133.085L37.4054 127.656L34.1371 133.085C32.4425 132.065 30.739 130.762 29.1065 129.325C25.8313 126.443 22.3501 122.588 19.2139 118.161L24.3851 114.498L19.2139 118.161C13.1372 109.583 7.25064 97.2601 8.58351 84.5515ZM47.0471 73.3873C38.9577 72.5388 31.5306 78.5139 30.6546 86.8663C30.1118 92.0421 32.6975 98.5615 36.9941 104.742C39.0281 107.668 41.1996 110.158 42.997 111.926C42.9991 111.928 43.0012 111.93 43.0033 111.932C43.0064 111.93 43.0095 111.928 43.0126 111.926C45.1381 110.569 47.7792 108.583 50.3762 106.143C55.8621 100.988 59.7436 95.1478 60.2862 89.9741C61.1622 81.6217 55.1365 74.2357 47.0471 73.3873Z" fill="white"/>
<path fill-rule="evenodd" clip-rule="evenodd" d="M0.185547 67.7356C0.185547 30.9379 29.8972 0.950439 66.4999 0.950439C103.103 0.950439 132.814 30.9379 132.814 67.7356C132.814 90.4439 119.905 112.414 105.855 128.406C98.7691 136.471 91.2153 143.224 84.4853 147.999C81.1233 150.385 77.8942 152.33 74.9712 153.696C72.1579 155.012 69.1965 156 66.4999 156C63.8032 156 60.8419 155.012 58.0286 153.696C55.1055 152.33 51.8764 150.385 48.5144 147.999C48.0831 147.693 47.6484 147.379 47.2107 147.057L68.0622 134.306C68.2498 134.196 68.4452 134.079 68.6483 133.954C70.4029 132.878 72.5779 131.344 75.0309 129.389C79.9335 125.484 85.7666 120.044 91.3536 113.57C102.671 100.455 112.29 83.9032 112.29 67.7356C112.29 42.1954 91.7039 21.4747 66.5 21.4747C41.2961 21.4747 20.7099 42.1954 20.7099 67.7356C20.7099 83.9071 30.3291 100.461 41.6464 113.575C46.5193 119.222 51.5794 124.082 56.0459 127.822L37.6223 139.125C34.1178 135.91 30.5764 132.312 27.1448 128.406C13.095 112.414 0.185547 90.4439 0.185547 67.7356Z" fill="white"/>
</svg>
