<svg width="497" height="626" viewBox="0 0 497 626" fill="none" xmlns="http://www.w3.org/2000/svg">
<path fill-rule="evenodd" clip-rule="evenodd" d="M341.886 470.451C294.142 533.165 306.766 623.187 369.815 671.186C408.722 700.806 463.204 707.345 508.93 704.132C531.992 702.512 553.415 698.377 570.376 693.076C578.849 690.427 586.393 687.431 592.548 684.205C598.471 681.101 604.027 677.316 607.544 672.696C611.062 668.075 613.231 661.712 614.647 655.176C616.118 648.385 616.999 640.316 617.296 631.444C617.892 613.683 616.176 591.933 611.599 569.272C602.525 524.34 581.722 473.564 542.814 443.943C479.766 395.945 389.63 407.736 341.886 470.451ZM396.586 636.02C352.826 602.706 344.176 540.406 377.052 497.222C409.928 454.038 472.282 445.794 516.042 479.109C543.744 500.197 559.556 538.268 567.264 574.766C571.069 592.784 572.781 609.874 573.078 623.368C573.227 630.12 573.018 635.848 572.574 640.258C572.357 642.41 572.094 644.155 571.816 645.499C570.596 646.124 568.985 646.843 566.971 647.624C562.84 649.227 557.376 650.953 550.829 652.607C537.745 655.914 520.816 658.813 502.436 659.941C465.204 662.225 424.294 657.114 396.586 636.02Z" fill="#FBD46D"/>
<path d="M508.93 704.132L507.415 682.56L507.415 682.56L508.93 704.132ZM570.376 693.076L576.827 713.716L570.376 693.076ZM592.548 684.205L602.586 703.359L592.548 684.205ZM614.647 655.176L593.513 650.598L593.513 650.598L614.647 655.176ZM617.296 631.444L638.909 632.169L617.296 631.444ZM611.599 569.272L590.402 573.552L611.599 569.272ZM567.264 574.766L588.422 570.298L588.422 570.298L567.264 574.766ZM573.078 623.368L594.698 622.893L594.698 622.893L573.078 623.368ZM572.574 640.258L594.09 642.425L594.09 642.425L572.574 640.258ZM571.816 645.499L581.677 664.745L590.898 660.021L592.994 649.874L571.816 645.499ZM566.971 647.624L574.792 667.785L574.792 667.785L566.971 647.624ZM550.829 652.607L545.531 631.641L545.531 631.641L550.829 652.607ZM502.436 659.941L501.112 638.356L501.112 638.356L502.436 659.941ZM382.914 653.98C329.242 613.12 318.678 536.636 359.092 483.55L324.68 457.352C269.606 529.694 284.29 633.255 356.716 688.392L382.914 653.98ZM507.415 682.56C463.87 685.62 415.719 678.954 382.914 653.98L356.716 688.392C401.726 722.659 462.537 729.07 510.446 725.704L507.415 682.56ZM563.925 672.435C548.709 677.191 528.956 681.047 507.415 682.56L510.446 725.704C535.029 723.977 558.121 719.563 576.827 713.716L563.925 672.435ZM582.509 665.052C577.81 667.514 571.542 670.055 563.925 672.435L576.827 713.716C586.157 710.8 594.976 707.348 602.586 703.359L582.509 665.052ZM590.338 659.597C589.687 660.451 587.465 662.455 582.509 665.052L602.586 703.359C609.477 699.747 618.366 694.181 624.75 685.795L590.338 659.597ZM593.513 650.598C592.328 656.066 590.989 658.742 590.338 659.597L624.75 685.795C631.135 677.409 634.135 667.359 635.782 659.755L593.513 650.598ZM595.684 630.719C595.416 638.695 594.636 645.413 593.513 650.598L635.782 659.755C637.601 651.357 638.582 641.938 638.909 632.169L595.684 630.719ZM590.402 573.552C594.677 594.719 596.218 614.786 595.684 630.719L638.909 632.169C639.566 612.581 637.674 589.147 632.796 564.991L590.402 573.552ZM529.715 461.149C562.52 486.124 581.761 530.764 590.402 573.552L632.796 564.991C623.289 517.915 600.924 461.003 555.913 426.737L529.715 461.149ZM359.092 483.55C399.507 430.464 476.043 420.289 529.715 461.149L555.913 426.737C483.488 371.6 379.754 385.009 324.68 457.352L359.092 483.55ZM359.846 484.123C319.624 536.956 330.372 612.79 383.487 653.226L409.685 618.814C375.28 592.621 368.729 543.855 394.258 510.321L359.846 484.123ZM529.141 461.903C476.026 421.466 400.068 431.29 359.846 484.123L394.258 510.321C419.788 476.787 468.539 470.122 502.943 496.315L529.141 461.903ZM588.422 570.298C580.358 532.113 563.075 487.736 529.141 461.903L502.943 496.315C524.412 512.659 538.754 544.423 546.106 579.235L588.422 570.298ZM594.698 622.893C594.372 608.085 592.511 589.657 588.422 570.298L546.106 579.235C549.628 595.91 551.191 611.663 551.459 623.844L594.698 622.893ZM594.09 642.425C594.643 636.93 594.861 630.291 594.698 622.893L551.459 623.844C551.593 629.949 551.393 634.766 551.058 638.092L594.09 642.425ZM592.994 649.874C593.46 647.619 593.82 645.107 594.09 642.425L551.058 638.092C550.895 639.712 550.728 640.691 550.638 641.124L592.994 649.874ZM574.792 667.785C577.304 666.811 579.628 665.795 581.677 664.745L561.956 626.253C561.564 626.454 560.667 626.875 559.151 627.463L574.792 667.785ZM556.127 673.573C563.302 671.76 569.643 669.783 574.792 667.785L559.151 627.463C556.037 628.671 551.45 630.146 545.531 631.641L556.127 673.573ZM503.761 681.525C523.51 680.313 541.768 677.202 556.127 673.573L545.531 631.641C533.721 634.626 518.123 637.313 501.112 638.356L503.761 681.525ZM383.487 653.226C417.426 679.064 464.806 683.915 503.761 681.525L501.112 638.356C465.602 640.535 431.162 635.164 409.685 618.814L383.487 653.226Z" fill="#FBD46D"/>
<path fill-rule="evenodd" clip-rule="evenodd" d="M265.004 687.363C118.991 598.604 71.6668 408.376 159.955 263.136C248.244 117.896 438.901 72.3323 584.915 161.091C675.022 215.865 731.059 320.083 760.626 414.407C775.539 461.978 784.112 508.239 786.829 546.463C788.187 565.559 788.114 583.062 786.486 597.957C784.92 612.293 781.698 626.427 775.193 637.128C768.689 647.828 757.625 657.195 745.619 665.185C733.145 673.488 717.641 681.611 700.065 689.196C697.811 690.169 695.516 691.136 693.183 692.095L692.882 578.465C692.897 577.496 692.902 576.484 692.898 575.427C692.858 565.867 692.017 553.537 690.18 539.09C686.508 510.216 678.992 473.948 666.779 436.163C642.038 359.621 599.562 281.528 535.409 242.531C434.065 180.926 302.19 212.632 241.396 312.641C180.602 412.651 213.167 544.317 314.511 605.922C378.679 644.929 467.567 646.689 546.903 633.415C581.064 627.699 612.553 619.342 638.17 610.641L638.579 711.009C617.369 717.16 594.549 722.534 570.771 726.729C473.426 743.905 355.111 742.137 265.004 687.363Z" fill="#FBD46D"/>
</svg>
