<svg xmlns="http://www.w3.org/2000/svg" version="1.1" xmlns:xlink="http://www.w3.org/1999/xlink" xmlns:svgjs="http://svgjs.dev/svgjs" viewBox="0 0 800 800"><defs><radialGradient id="ccclaymoji-grad-dark" r="93%" cx="20%" cy="20%">
      <stop offset="70%" stop-color="hsl(44, 100%, 80%)" stop-opacity="0"></stop>
      <stop offset="97%" stop-color="#cab26a" stop-opacity="1"></stop>
    </radialGradient><radialGradient id="ccclaymoji-grad-light" r="65%" cx="28%" cy="20%">
    <stop offset="0%" stop-color="#ffffca" stop-opacity="0.75"></stop>
    <stop offset="100%" stop-color="hsl(44, 100%, 80%)" stop-opacity="0"></stop>
  </radialGradient><filter id="ccclaymoji-blur" x="-100%" y="-100%" width="400%" height="400%" filterUnits="objectBoundingBox" primitiveUnits="userSpaceOnUse" color-interpolation-filters="sRGB">
	<feGaussianBlur stdDeviation="0" x="0%" y="0%" width="100%" height="100%" in="SourceGraphic" edgeMode="none" result="blur"></feGaussianBlur></filter><filter id="inner-blur" x="-100%" y="-100%" width="400%" height="400%" filterUnits="objectBoundingBox" primitiveUnits="userSpaceOnUse" color-interpolation-filters="sRGB">
	<feGaussianBlur stdDeviation="2" x="0%" y="0%" width="100%" height="100%" in="SourceGraphic" edgeMode="none" result="blur"></feGaussianBlur></filter><filter id="eye-shadow" x="-100%" y="-100%" width="400%" height="400%" filterUnits="objectBoundingBox" primitiveUnits="userSpaceOnUse" color-interpolation-filters="sRGB">
	<feDropShadow stdDeviation="10" dx="10" dy="10" flood-color="#000000" flood-opacity="0.2" x="0%" y="0%" width="100%" height="100%" result="dropShadow"></feDropShadow>
</filter><linearGradient gradientTransform="rotate(-25)" id="eye-light" x1="50%" y1="0%" x2="50%" y2="100%">
      <stop offset="20%" stop-color="#555555" stop-opacity="1"></stop>
      <stop offset="100%" stop-color="hsla(0, 0%, 0%, 1)" stop-opacity="0"></stop>
    </linearGradient><linearGradient id="mouth-light" x1="50%" y1="0%" x2="50%" y2="100%">
    <stop offset="0%" stop-color="#9e9e9e" stop-opacity="1"></stop>
    <stop offset="100%" stop-color="hsla(0, 0%, 27%, 1)" stop-opacity="0"></stop>
  </linearGradient><filter id="mouth-shadow" x="-100%" y="-100%" width="400%" height="400%" filterUnits="objectBoundingBox" primitiveUnits="userSpaceOnUse" color-interpolation-filters="sRGB">
	<feDropShadow stdDeviation="10" dx="10" dy="10" flood-color="#1e1e1e" flood-opacity="0.2" x="0%" y="0%" width="100%" height="100%" result="dropShadow"></feDropShadow>
</filter></defs><g stroke-linecap="round"><path d="M350 100.00000405860374C350 245.13427515834798 245.13427109974424 362.78772784376997 100 362.78772784376997C-45.13363171355499 362.78772784376997 -150 245.13427515834798 -150 100.00000405860374C-150 -45.133627654951255 -45.13363171355499 -162.7877197265625 100 -162.7877197265625C245.13427109974424 -162.7877197265625 350 -45.133627654951255 350 100.00000405860374Z " fill="#cab26a" opacity="0" filter="url(#ccclaymoji-blur)"></path><circle r="250" cx="400" cy="400" fill="hsl(44, 100%, 80%)"></circle><circle r="250" cx="400" cy="400" fill="url(#ccclaymoji-grad-dark)"></circle><circle r="250" cx="400" cy="400" fill="url(#ccclaymoji-grad-light)"></circle><ellipse rx="28" ry="38.5" cx="350" cy="375" fill="hsla(0, 0%, 0%, 1)" filter="url(#eye-shadow)"></ellipse><ellipse rx="28" ry="38.5" cx="350" cy="375" fill="url(#eye-light)" filter="url(#inner-blur)"></ellipse><ellipse rx="28.5" ry="39.5" cx="450" cy="375" fill="hsla(0, 0%, 0%, 1)" filter="url(#eye-shadow)"></ellipse><ellipse rx="28.5" ry="39.5" cx="450" cy="375" fill="url(#eye-light)" filter="url(#inner-blur)"></ellipse><path d="M365 526.75Q434 487.75 487 526.75 " stroke-width="20" stroke="hsla(0, 0%, 27%, 1)" fill="none" filter="url(#mouth-shadow)" transform="rotate(16, 400, 400)"></path><path d="M365 526.75Q434 487.75 487 526.75 " stroke-width="6.666666666666667" stroke="url(#mouth-light)" fill="none" filter="url(#inner-blur)" transform="rotate(16, 400, 400)"></path></g></svg>